<svg width="92" height="49" viewBox="0 0 92 49" fill="none" xmlns="http://www.w3.org/2000/svg">
<path d="M34.8295 12.5309L32.7302 11.3128C32.52 11.1915 32.2559 11.3424 32.2559 11.5876V16.8239C32.2559 17.0691 32.52 17.2201 32.7302 17.0988L34.8295 15.8807C34.9265 15.8241 34.9885 15.719 34.9885 15.6058V12.8031C34.9885 12.6899 34.9292 12.5848 34.8295 12.5282" fill="white"/>
<path d="M35.1554 9.35611L37.57 7.96283C37.667 7.90623 37.729 7.80383 37.729 7.69064L37.7398 5.24902C37.7398 5.00378 37.4757 4.85287 37.2655 4.97414L32.7299 7.59362C32.5197 7.71489 32.5197 8.01942 32.7299 8.14069L34.8401 9.3588C34.9371 9.41539 35.0583 9.41539 35.1554 9.3588" fill="white"/>
<path d="M34.8377 19.0417L32.7114 20.2706C32.5012 20.3919 32.5012 20.6937 32.7114 20.8177L37.2631 23.4857C37.4733 23.6096 37.7401 23.456 37.7401 23.2108L37.7293 20.7233C37.7293 20.6102 37.67 20.5077 37.573 20.4512L35.1584 19.0444C35.0614 18.9878 34.9401 18.9878 34.8404 19.0444" fill="white"/>
<path d="M40.4751 22.6745L40.4832 25.1026C40.4832 25.2158 40.5425 25.3182 40.6422 25.3748L45.8192 28.3662C45.9162 28.4228 46.0374 28.4228 46.1345 28.3662L51.3088 25.3748C51.4058 25.3182 51.465 25.2158 51.4677 25.1026L51.4785 22.6745C51.4785 22.4292 51.2144 22.2756 51.0042 22.3996L46.1345 25.2023C46.0374 25.2589 45.9162 25.2589 45.8192 25.2023L40.9494 22.3996C40.7392 22.2783 40.4751 22.4319 40.4751 22.6745Z" fill="white"/>
<path d="M51.4758 12.7975V15.6002C51.4758 15.7134 51.4165 15.8185 51.3195 15.8751L46.1398 18.8826C46.0428 18.9392 45.9188 18.9392 45.8218 18.8826L40.6422 15.8751C40.5451 15.8185 40.4832 15.7134 40.4832 15.6002V12.7975C40.4832 12.6843 40.5424 12.5792 40.6422 12.5226L45.8218 9.55006C45.9188 9.49347 46.0401 9.49347 46.1371 9.55006L51.3168 12.5226C51.4138 12.5792 51.4758 12.6843 51.4758 12.7975ZM37.7505 11.2128V17.1821C37.7505 17.2953 37.8098 17.4004 37.9095 17.457L45.8218 22.0276C45.9188 22.0842 46.0401 22.0842 46.1371 22.0276L54.0495 17.457C54.1465 17.4004 54.2085 17.2953 54.2085 17.1821V11.2128C54.2085 11.0997 54.1492 10.9945 54.0495 10.938L46.1371 6.38351C46.0401 6.32692 45.9188 6.32692 45.8218 6.38351L37.9095 10.938C37.8125 10.9945 37.7505 11.0997 37.7505 11.2128Z" fill="white"/>
<path d="M57.1302 15.8806L59.2295 17.0987C59.4397 17.22 59.7038 17.069 59.7038 16.8238V11.5875C59.7038 11.345 59.4397 11.1914 59.2295 11.3127L57.1302 12.5308C57.0332 12.5874 56.9712 12.6925 56.9712 12.8056V15.6084C56.9712 15.7216 57.0305 15.8267 57.1302 15.8833" fill="white"/>
<path d="M57.1112 9.35625L59.2214 8.13814C59.4316 8.01687 59.4316 7.71234 59.2214 7.59107L54.6858 4.97159C54.4729 4.85031 54.2088 5.00393 54.2114 5.24647L54.2222 7.68808C54.2222 7.80127 54.2842 7.90368 54.3812 7.96027L56.7959 9.35356C56.8929 9.41015 57.0142 9.41015 57.1112 9.35356" fill="white"/>
<path d="M56.7932 19.0417L54.3785 20.4485C54.2815 20.5051 54.2222 20.6075 54.2222 20.7207L54.2114 23.2081C54.2114 23.4533 54.4755 23.6069 54.6884 23.483L59.2402 20.815C59.4504 20.691 59.4477 20.3892 59.2402 20.2679L57.1139 19.0417C57.0169 18.9851 56.8929 18.9851 56.7959 19.0417" fill="white"/>
<path d="M51.4759 5.73685L51.4651 3.29523C51.4651 3.18205 51.4031 3.07964 51.3061 3.02305L46.1291 0.0424453C46.0321 -0.0141484 45.9108 -0.0141484 45.8138 0.0424453L40.6395 3.02305C40.5425 3.07964 40.4805 3.18474 40.4805 3.29523L40.4697 5.73685C40.4697 5.98209 40.7338 6.133 40.944 6.01173L45.8138 3.20361C45.9108 3.14701 46.0321 3.14701 46.1291 3.20361L50.9988 6.01173C51.2091 6.133 51.4732 5.97939 51.4732 5.73685" fill="white"/>
<path d="M7.12272 41.9919H1.63043V47.8426C1.63043 48.0394 1.46875 48.2011 1.27202 48.2011H0.358431C0.161701 48.2011 0 48.0394 0 47.8426V38.1112C0 35.7316 1.30705 34.783 3.81065 34.783C4.86706 34.783 6.54871 34.818 7.30059 34.8908C7.40839 34.9096 7.47845 35.0336 7.47845 35.1414V36.0361C7.47845 36.1601 7.40569 36.2517 7.28173 36.2517H3.82951C1.93228 36.2517 1.62774 36.753 1.62774 38.1112V40.5986H7.12002C7.31675 40.5986 7.47845 40.7603 7.47845 40.9571V41.6362C7.47845 41.8329 7.31675 41.9946 7.12002 41.9946" fill="white"/>
<path d="M10.7365 48.201H9.87681C9.68008 48.201 9.51838 48.0393 9.51838 47.8426V38.7175C9.51838 38.5208 9.68008 38.3591 9.87681 38.3591H10.7365C10.9332 38.3591 11.0949 38.5208 11.0949 38.7175V47.8426C11.0949 48.0393 10.9332 48.201 10.7365 48.201ZM10.7715 36.9389H9.85794C9.66121 36.9389 9.49951 36.7772 9.49951 36.5804V35.1494C9.49951 34.9527 9.66121 34.791 9.85794 34.791H10.7715C10.9683 34.791 11.1299 34.9527 11.1299 35.1494V36.5804C11.1299 36.7772 10.9683 36.9389 10.7715 36.9389Z" fill="white"/>
<path d="M20.5947 48.201H19.665C19.4682 48.201 19.3416 48.0393 19.3416 47.8426V41.4556C19.3416 40.1135 19.002 39.596 17.7839 39.596H16.5146C15.2992 39.596 14.9569 40.1162 14.9569 41.4556V47.8426C14.9569 48.0393 14.8329 48.201 14.6335 48.201H13.7038C13.507 48.201 13.3804 48.0393 13.3804 47.8426V41.4556C13.3804 38.7013 15.2938 38.2351 16.5119 38.2351H17.7812C18.9966 38.2351 20.9127 38.7013 20.9127 41.4556V47.8426C20.9127 48.0393 20.7887 48.201 20.592 48.201" fill="white"/>
<path d="M27.356 48.2172C27.0165 48.2711 26.2835 48.325 25.6394 48.325C23.9577 48.325 22.9902 47.7698 22.9902 45.8376V36.6047C22.9902 36.4241 23.1519 36.3002 23.3487 36.2651L24.2245 36.1223H24.2596C24.4374 36.1223 24.5641 36.284 24.5641 36.4619V38.3591H27.356C27.5528 38.3591 27.6956 38.4831 27.6956 38.6825V39.2916C27.6956 39.4694 27.5528 39.6123 27.356 39.6123H24.5641V45.8376C24.5641 46.8751 24.9036 47.053 25.8873 47.053H27.3372C27.5878 47.053 27.7118 47.1257 27.7118 47.3036V47.9127C27.7118 48.0744 27.6228 48.1822 27.3533 48.2172" fill="white"/>
<path d="M44.1187 48.1282C43.5285 48.236 42.7227 48.325 41.8819 48.325C39.4484 48.325 38.0713 46.6083 38.0713 43.978V42.582C38.0713 39.9518 39.4322 38.2351 41.8819 38.2351C42.7039 38.2351 43.5285 38.324 44.1187 38.4318C44.4044 38.4857 44.4771 38.5747 44.4771 38.8253V39.4694C44.4771 39.6473 44.3343 39.7362 44.1726 39.7362H44.0999C43.3129 39.6473 42.7578 39.6122 41.8819 39.6122C40.4509 39.6122 39.6451 40.5608 39.6451 42.582V43.978C39.6451 45.9831 40.432 46.9478 41.8819 46.9478C42.7578 46.9478 43.3129 46.9128 44.0999 46.8212H44.1726C44.3343 46.8212 44.4771 46.9101 44.4771 47.0907V47.7348C44.4771 47.9665 44.4044 48.0743 44.1187 48.1282Z" fill="white"/>
<path d="M53.2948 48.2009H52.4351C52.2384 48.2009 52.0767 48.0392 52.0767 47.8425V41.8328C52.0767 40.3479 51.3598 39.5771 49.7509 39.5771C49.0341 39.5771 48.2472 39.6849 47.6947 39.8466V47.8425C47.6947 48.0392 47.533 48.2009 47.3363 48.2009H46.4766C46.2799 48.2009 46.1182 48.0392 46.1182 47.8425V35.0874C46.1182 34.9095 46.2448 34.7478 46.4416 34.7478H47.3551C47.533 34.7478 47.6947 34.8906 47.6947 35.0874V38.4857C48.3038 38.3428 49.0556 38.2351 49.7509 38.2351C52.4351 38.2351 53.6505 39.7038 53.6505 41.8301V47.8398C53.6505 48.0365 53.4888 48.1982 53.2921 48.1982" fill="white"/>
<path d="M58.8601 48.306C57.6959 48.306 56.8039 48.1821 56.087 48.1093C55.9253 48.0904 55.7636 48.0015 55.7636 47.8236V47.5919C55.7636 47.414 55.9253 47.3601 56.1032 47.3601H56.1759C57.1057 47.4329 57.8764 47.5568 58.8601 47.5568C61.5604 47.5568 62.1883 46.3576 62.1883 44.8915C62.1883 43.5683 61.4203 43.1021 59.4341 41.8678L58.3076 41.1698C56.6799 40.1673 55.4995 39.3076 55.4995 37.7176C55.4995 35.373 57.5935 34.8179 59.6848 34.8179C60.6334 34.8179 61.582 34.9257 62.3501 34.9957C62.5279 35.0146 62.6546 35.1035 62.6546 35.2652V35.497C62.6546 35.6749 62.5118 35.7476 62.315 35.7476C61.9216 35.7476 60.5795 35.5698 59.6659 35.5698C57.3051 35.5698 56.3026 36.2489 56.3026 37.7338C56.3026 38.8441 57.1246 39.5044 58.7173 40.4718L59.8626 41.1698C61.8488 42.3691 63.0103 43.2449 63.0103 44.8915C63.0103 46.5382 62.3123 48.3087 58.8601 48.3087" fill="white"/>
<path d="M70.6129 39.4344C69.9688 39.3266 68.9852 39.2026 68.1255 39.2026C66.1205 39.2026 65.4063 40.5447 65.4063 42.8516V43.9592C65.4063 46.266 66.1232 47.6081 68.1255 47.6081C68.9852 47.6081 69.9688 47.4842 70.6129 47.3764V39.4317V39.4344ZM71.133 47.9692C70.3461 48.1309 69.1469 48.3088 68.1282 48.3088C65.6596 48.3088 64.6221 46.5382 64.6221 43.9619V42.8543C64.6221 40.2779 65.6596 38.5073 68.1282 38.5073C69.1469 38.5073 70.3461 38.6852 71.133 38.8469C71.3486 38.9008 71.4025 38.9709 71.4025 39.1864V47.6324C71.4025 47.848 71.3486 47.918 71.133 47.9719" fill="white"/>
<path d="M77.0349 48.3061H76.6954C75.48 48.3061 73.4561 47.662 73.4561 44.711V38.9331C73.4561 38.7552 73.58 38.5935 73.7606 38.5935H73.9385C74.1163 38.5935 74.243 38.7552 74.243 38.9331V44.711C74.243 47.0017 75.4773 47.573 76.6954 47.573H77.0349C78.2531 47.573 79.4873 47.0017 79.4873 44.711V38.9331C79.4873 38.7552 79.6113 38.5935 79.7919 38.5935H79.9697C80.1476 38.5935 80.2743 38.7552 80.2743 38.9331V44.711C80.2743 47.662 78.2531 48.3061 77.0349 48.3061Z" fill="white"/>
<path d="M88.0544 39.4345C87.3752 39.2916 86.2649 39.2027 85.5669 39.2027C83.5996 39.2027 82.8477 40.4181 82.8477 42.7816V43.962C82.8477 46.2688 83.5646 47.6109 85.5669 47.6109C86.4266 47.6109 87.4103 47.4869 88.0544 47.3791V39.4345ZM88.5745 47.9693C87.7875 48.131 86.5883 48.3089 85.5696 48.3089C83.101 48.3089 82.0635 46.5383 82.0635 43.962V42.7816C82.0635 39.9546 83.2439 38.5047 85.5696 38.5047C86.2676 38.5047 87.3402 38.6125 88.057 38.7742V35.2492C88.057 35.0714 88.181 34.9097 88.3615 34.9097H88.5394C88.7173 34.9097 88.8439 35.0714 88.8439 35.2492V47.6298C88.8439 47.8454 88.7901 47.9154 88.5745 47.9693Z" fill="white"/>
<path d="M91.6144 48.306H91.5066C91.3287 48.306 91.167 48.1443 91.167 47.9665V38.9303C91.167 38.7525 91.3287 38.5908 91.5066 38.5908H91.6144C91.7922 38.5908 91.9539 38.7525 91.9539 38.9303V47.9665C91.9539 48.1443 91.7922 48.306 91.6144 48.306ZM91.6144 36.8202H91.5066C91.3287 36.8202 91.167 36.6774 91.167 36.4806V35.1574C91.167 34.9796 91.3287 34.8179 91.5066 34.8179H91.6144C91.7922 34.8179 91.9539 34.9796 91.9539 35.1574V36.4806C91.9539 36.6774 91.7922 36.8202 91.6144 36.8202Z" fill="white"/>
<path d="M32.6332 38.2351C30.0757 38.2351 28.6743 40.1135 28.6743 42.6548V43.908C28.6743 47.344 30.8329 48.3277 32.8892 48.3277C34.0884 48.3277 34.9212 48.2199 35.9426 48.0231C36.2282 47.9692 36.2767 47.8453 36.2767 47.6108V47.0018C36.2767 46.8239 36.2121 46.6433 36.0692 46.6433H35.9803C35.1583 46.9236 33.986 46.9479 32.9485 46.9479C31.3019 46.9479 30.364 46.0531 30.364 43.9969V42.4931C30.364 40.6498 31.2453 39.6122 32.7841 39.6122C34.3229 39.6122 35.1502 40.5797 35.1502 42.4931V42.7006H31.4097C31.2237 42.7006 31.0728 42.8516 31.0728 43.0375V43.4876C31.0728 43.6735 31.2237 43.8244 31.4097 43.8244H36.301C36.5166 43.8244 36.557 43.6169 36.557 43.3851V42.6333C36.557 40.0919 35.2446 38.2324 32.6332 38.2324" fill="white"/>
</svg>
