<svg width="33" height="33" viewBox="0 0 33 33" fill="none" xmlns="http://www.w3.org/2000/svg">
<path d="M7.90586 7.99412H9.40557C9.95718 7.99412 10.4054 7.63859 10.4054 7.20333V0.790793C10.4054 0.353379 9.95718 0 9.40557 0H7.90586C7.3564 0 6.90821 0.353379 6.90821 0.790793V7.20333C6.90606 7.63859 7.35424 7.99412 7.90586 7.99412Z" fill="#172659"/>
<path d="M23.5946 7.99412H25.0943C25.6459 7.99412 26.0941 7.63859 26.0941 7.20333V0.790793C26.0941 0.353379 25.6459 0 25.0943 0H23.5946C23.043 0 22.5969 0.353379 22.5969 0.790793V7.20333C22.5969 7.63859 23.043 7.99412 23.5946 7.99412Z" fill="#172659"/>
<path d="M31.2697 3.05957H27.292V7.96809C27.292 9.06486 26.3052 9.95693 25.092 9.95693H23.5923C22.3792 9.95693 21.3923 9.06486 21.3923 7.96809V3.05957H11.6011V7.96809C11.6011 9.06486 10.6143 9.95693 9.40114 9.95693H7.90574C6.69477 9.95693 5.70789 9.06486 5.70789 7.96809V3.05957H1.73023C1.06872 3.05957 0.530029 3.59826 0.530029 4.25977V31.8039C0.530029 32.4654 1.06872 32.9998 1.73023 32.9998H31.2697C31.9334 32.9998 32.4699 32.4654 32.4699 31.8039V4.25977C32.4699 3.59826 31.9334 3.05957 31.2697 3.05957ZM30.8474 20.4484V29.8194C30.8474 30.0263 30.6793 30.1987 30.4703 30.1987H16.0679H2.52964C2.32063 30.1987 2.15256 30.0263 2.15256 29.8194V22.2153V12.8443C2.15256 12.6374 2.32063 12.4651 2.52964 12.4651H16.9298H30.4703C30.6793 12.4651 30.8474 12.6374 30.8474 12.8443V20.4484Z" fill="#172659"/>
<path d="M8.75265 19.2422H5.01416V22.9828H8.75265V19.2422Z" fill="#172659"/>
<path d="M15.1154 19.2422H11.377V22.9828H15.1154V19.2422Z" fill="#172659"/>
<path d="M21.4138 19.2422H17.6775V22.9828H21.4138V19.2422Z" fill="#172659"/>
<path d="M27.779 19.2422H24.0383V22.9828H27.779V19.2422Z" fill="#172659"/>
<path d="M8.8322 24.6328H5.09155V28.3735H8.8322V24.6328Z" fill="#172659"/>
<path d="M15.1953 24.6328H11.4568V28.3735H15.1953V24.6328Z" fill="#172659"/>
<path d="M21.4937 24.6328H17.7573V28.3735H21.4937V24.6328Z" fill="#172659"/>
<path d="M27.8586 24.6328H24.1201V28.3735H27.8586V24.6328Z" fill="#172659"/>
<path d="M21.4397 13.9414H17.7012V17.6799H21.4397V13.9414Z" fill="#172659"/>
<path d="M27.8049 13.9414H24.0686V17.6799H27.8049V13.9414Z" fill="#172659"/>
</svg>
